' @compare_tag Process-ClassDiagram v0.1
@startuml
title TrajectorySelector Process Class Diagram

namespace fast::rf {
  namespace DiagnosticDefinition {
    enum DiagnosticType
  }
  namespace messages {
    namespace InfrastructureMsgs {
      class DiagnosticMsg <<(M,#FFFF00)>>
      class ReadyToArmStatusMsg <<(M,#FFFF00)>>
    }
  }
  namespace core::Infrastructure {
    class DiagnosticManager
  }
  interface IProcess
  namespace NavigationSystem {
    namespace NavigationExecutorSubsystem {
      package TrajectorySelector #LightYellow;line:blue {
        interface ITrajectorySelectorProcess  {
          +{abstract} bool init()
        }
        ITrajectorySelectorProcess -up-|> IProcess
        abstract BaseTrajectorySelectorProcess {
          +DiagnosticMsg[] getDiagnostics()
          +bool updateDiagnostic(DiagnosticType type, Level level, DiagnosticMessage message, string description)
          +ReadyToArmStatusMsg get_ready_to_arm()
          #bool update(double current_time_sec)
          #string pretty()
          #DiagnosticManager diagnosticManager
          #ReadyToArmStatusMsg ready_to_arm

        }
        BaseTrajectorySelectorProcess .up.|> ITrajectorySelectorProcess
        BaseTrajectorySelectorProcess --> DiagnosticManager: <<use>>
        class BasicTrajectorySelectorProcess {
          +bool init()
          +bool update(double current_time_sec)
        }
        BasicTrajectorySelectorProcess -up-|> BaseTrajectorySelectorProcess
        class DummyTrajectorySelectorProcess {
          +bool update(double current_time_sec)
        }
        DummyTrajectorySelectorProcess -up-|> BaseTrajectorySelectorProcess
      }
    }
  }
}
@enduml
