@startuml
title System-GoalPlanning Package Diagram

namespace fast::rf {
  package GoalPlanningSystem #LightYellow;line:blue {
    interface IGoalPlanningSystem {
    }
    abstract BaseGoalPlanningSystem {
    }
    IGoalPlanningSystem <|-- BaseGoalPlanningSystem
    class BasicGoalPlanningSystem {

    }
    BaseGoalPlanningSystem <|-- BasicGoalPlanningSystem
    class DummyGoalPlanningSystem  {
    }
    BaseGoalPlanningSystem <|-- DummyGoalPlanningSystem
  }
}
@enduml