' @compare_tag Process-ClassDiagram v0.1
@startuml
title TeleopControl Process Class Diagram

namespace fast::rf {
  namespace DiagnosticDefinition {
    enum DiagnosticType
  }
  namespace messages {
    namespace SensorMsgs {
      class JoyMsg <<(M,#FFFF00)>>
    }
    namespace GeometryMsgs {
      class TwistMsg <<(M,#FFFF00)>>
    }
    namespace InfrastructureMsgs {
      class DiagnosticMsg <<(M,#FFFF00)>>
      class ReadyToArmStatusMsg <<(M,#FFFF00)>>
      class ArmCommandMsg <<(M,#FFFF00)>>
      class ArmStateChangeSrv <<(M,#FFFF00)>> {
        +ArmStateChangeSrvRequest request
        +ArmStateChangeSrvResponse response
      }
      ArmStateChangeSrv +-- ArmStateChangeSrvRequest
      ArmStateChangeSrv +-- ArmStateChangeSrvResponse
    }
  }
  namespace core::Infrastructure {
    class DiagnosticManager
  }
  interface IProcess
  namespace UserInterfaceSystem {
    namespace RemoteControlSubsystem {
      package TeleopControl #LightYellow;line:blue {
        struct JoystickCalibrationData #LimeGreen {
          double x_min
          double x_max
          double x_deadband
          double y_min
          double y_max
          double y_deadband
          double throttle_min
          double throttle_max
          double throttle_deadband
          +{static} pretty()
        }
        enum OperationMode #LimeGreen {
          UNKNOWN = 0,
          JOY_TEST = 1,
          RUN = 2,
          END_OF_LIST = 3
        }
        enum ControlDevice #LimeGreen {
          UNKNOWN = 0,
          THRUSTMASTER_JOYSTICK = 1,
          END_OF_LIST = 2
        }
        interface ITeleopControlProcess #LimeGreen {
          +{abstract} bool init(ControlDevice device,JoystickCalibrationData joy_calibration_data)
          +{abstract} bool update_RobotArmCommand(ArmCommandMsg robot_arm_command)
          +{abstract} bool new_joy(JoyMsg joy)
          +{abstract} TwistMsg get_twist_output()
          +{abstract} ArmStateChangeSrvRequest get_armstate_change_request()
          +{abstract} bool set_operation_mode(OperationMode mode)
        }
 	ITeleopControlProcess -up-|> IProcess
        ITeleopControlProcess +-- JoystickCalibrationData
        ITeleopControlProcess --> OperationMode: <<use>>
        ITeleopControlProcess --> ControlDevice: <<use>>
        class JoystickMapper #Pink {
          +bool set_mapping()
          +bool init(ControlDevice device)
          +JoyMsg new_joy(JoyMsg joy)
          -bool is_initialized
          -ControlDevice control_device
        }
        JoystickMapper --> ControlDevice: <<use>>
        note bottom of JoystickMapper
          Pass-Thru
        end note
        class JoystickScaler #LimeGreen {
          +bool init(ControlDevice device,JoystickCalibrationData joy_calibration_data)
          +JoyMsg new_joy(JoyMsg joy)
          -bool is_initialized
          -ControlDevice control_device
          -JoystickCalibrationData joy_cal_data
        }
        JoystickScaler --> JoystickCalibrationData: <<use>>
        JoystickScaler --> ControlDevice: <<use>>
        abstract BaseTeleopControlProcess #LimeGreen {
          +DiagnosticMsg[] getDiagnostics()
          +bool updateDiagnostic(DiagnosticType type, Level level, DiagnosticMessage message, string description)
          +bool update_RobotArmCommand(ArmCommandMsg robot_arm_command)
          +bool set_operation_mode(OperationMode mode)
          +ReadyToArmStatusMsg get_ready_to_arm()
          +ArmStateChangeSrvRequest get_armstate_change_request()
          #bool update(double currentTimeSec)
          #string pretty()
          #DiagnosticManager m_diagnosticManager
          #ReadyToArmStatusMsg ready_to_arm
          #robot_arm_command robot_arm_command
          #ArmStateChangeSrvRequest armstate_change_request
          #JoystickMapper joy_mapper
          #JoystickScaler joy_scaler
          +TwistMsg get_twist_output()
          -TwistMsg desired_twist
          -OperationMode operation_mode = OperationMode::RUN

        }
        BaseTeleopControlProcess .up.|> ITeleopControlProcess
        BaseTeleopControlProcess --> DiagnosticManager: <<use>>
        BaseTeleopControlProcess --> JoystickMapper: <<use>>
        BaseTeleopControlProcess --> JoystickScaler: <<use>>
        
        class BasicTeleopControlProcess #LimeGreen
        BasicTeleopControlProcess -up-|> BaseTeleopControlProcess
        class DummyTeleopControlProcess {
          +bool init(ControlDevice device,JoystickCalibrationData joy_calibration_data)
          +bool update(double current_time_sec)
        }
        DummyTeleopControlProcess -up-|> BaseTeleopControlProcess
      }
    }
  }
}
@enduml
