@startuml
title System-Comms Package Diagram

namespace fast::rf {
  package CommsSystem #LightYellow;line:blue {
    interface ICommsSystem {
    }
    abstract BaseCommsSystem {
    }
    ICommsSystem <|-- BaseCommsSystem
    class BasicCommsSystem {

    }
    BaseCommsSystem <|-- BasicCommsSystem
    class DummyCommsSystem  {
    }
    BaseCommsSystem <|-- DummyCommsSystem
  }
}
@enduml