@startuml
title ArmedStateManager Process Class Diagram

namespace fast::rf {
  namespace DiagnosticDefinition {
    enum DiagnosticType
  }
  namespace messages {
    namespace InfrastructureMsgs {
        class DiagnosticMsg <<(M,#FFFF00)>>
        class ArmCommandMsg <<(M,#FFFF00)>>
        class ReadyToArmStatusMsg <<(M,#FFFF00)>> 
        struct ArmStateChangeSrvRequest
        struct ArmStateChangeSrvResponse
        class ArmStateChangeSrv <<(M,#FFFF00)>>  {
            +ArmStateChangeSrvRequest request
            +ArmStateChangeSrvResponse response
        }
        ArmStateChangeSrv +-- ArmStateChangeSrvRequest
        ArmStateChangeSrv +-- ArmStateChangeSrvResponse
    }
  }
  namespace core::Infrastructure {
    class DiagnosticManager
  }
  namespace SafetySystem {
    package ModeManagerSubsystem #LightYellow;line:blue {
        interface IArmedStateManagerProcess #Yellow  {
          +{abstract} bool init()
          +{abstract} DiagnosticMsg[] get_diagnostics()
          +{abstract} bool update(double current_time_sec)
          +{abstract} string pretty()
          +{abstract} ArmStateChangeSrvResponse request_armstate_change(ArmStateChangeSrvRequest request)
          +{abstract} bool new_ReadyToArmStatus(ReadyToArmStatusMsg msg)
          +{abstract} ArmCommandMsg get_ArmCommandMsg()

        }
        note right of IArmedStateManagerProcess
        Implement during AB#1766
        end note
        abstract BaseArmedStateManagerProcess #Yellow {
          +DiagnosticMsg[] get_diagnostics()
          +bool base_update(double current_time_sec)
          +string pretty()
          #DiagnosticManager diagnosticManager

        }
        BaseArmedStateManagerProcess -up-|> IArmedStateManagerProcess
        BaseArmedStateManagerProcess --> DiagnosticManager: <<use>>
        class ArmStateCommander #Orange {
            +bool init()
            +string pretty()
            +bool update(double current_time_sec)
            +bool update_ready_to_arm(bool ready_to_arm)
            +ArmStateChangeSrvResponse request_armstate_change(ArmfChangeSrvRequest request)
            +ArmCommandMsg get_ArmCommandMsg()
        }
        class ReadyToArmComputer #Orange {
            +bool add_monitor(uint8_t system_id, uint8_t subsystem_id, uint8_t component_id)
            +bool init()
            +string pretty()
            +bool update(double current_time_sec)
            +bool get_ready_to_arm()
            +bool new_ArmedStatus(ReadyToArmStatusMsg msg)
        }
        class BasicArmedStateManagerProcess #Yellow {
          +bool init()
          +bool update(double current_time_sec)
          +bool new_ReadyToArmStatus(ReadyToArmStatusMsg msg)
          +ArmStateChangeSrvResponse request_armstate_change(ArmfChangeSrvRequest request)
          +ArmCommandMsg get_ArmCommandMsg()
          -ArmStateCommander arm_state_commander
          -ReadyToArmComputer ready_to_arm_computer
        }
        BasicArmedStateManagerProcess -up-|> BaseArmedStateManagerProcess
        BasicArmedStateManagerProcess --> ArmStateCommander
        BasicArmedStateManagerProcess --> ReadyToArmComputer
    }
  }
}
@enduml