' @compare_tag Process-ClassDiagram v0.1
@startuml
title LocalPoseFuser Process Class Diagram

namespace fast::rf {
  namespace DiagnosticDefinition {
    enum DiagnosticType
  }
  namespace messages {
    namespace InfrastructureMsgs {
      class DiagnosticMsg <<(M,#FFFF00)>>
      class ReadyToArmStatusMsg <<(M,#FFFF00)>>
    }
    namespace SensorMsgs {
      class ImuMsg <<(M,#FFFF00)>>
    }
    namespace GeometryMsgs {
      class AccelWithCovarianceMsg <<(M,#FFFF00)>>
      class OdomMsg <<(M,#FFFF00)>>
    }
  }
  namespace core::Infrastructure {
    class DiagnosticManager
  }
  interface IProcess
  namespace PoseSystem {
    namespace LocalPoseSubsystem {
      package LocalPoseFuser #LightYellow;line:blue {
        interface ILocalPoseFuserProcess #LimeGreen  {
          +{abstract} bool init()
          +{abstract} bool new_machine_inertial_data(ImuMsg machine_inertial_data)
          +{abstract} bool get_local_pose(OdomMsg local_pose, AccelWithCovarianceMsg angular_acc)
        }
        ILocalPoseFuserProcess -up-|> IProcess
        abstract BaseLocalPoseFuserProcess #LimeGreen {
          +bool init()
          +DiagnosticMsg[] getDiagnostics()
          +bool updateDiagnostic(DiagnosticType type, Level level, DiagnosticMessage message, string description)
          +ReadyToArmStatusMsg get_ready_to_arm()
          +bool get_local_pose(OdomMsg local_pose, AccelWithCovarianceMsg angular_acc)
          #void new_local_pose(OdomMsg local_pose,AccelWithCovarianceMsg angular_acc)
	  #bool update(double current_time_sec)
          #string pretty()
          #DiagnosticManager diagnosticManager
          #ReadyToArmStatusMsg ready_to_arm
          -OdomMsg local_pose_
          -AccelWithCovarianceMsg angular_acc
          -bool is_new_local_pose

        }
        BaseLocalPoseFuserProcess .up.|> ILocalPoseFuserProcess
        BaseLocalPoseFuserProcess --> DiagnosticManager: <<use>>
        class BasicLocalPoseFuserProcess #Pink {
          +bool init()
          +bool new_machine_inertial_data(ImuMsg machine_inertial)
          +bool update(double current_time_sec)
        }
        BasicLocalPoseFuserProcess -up-|> BaseLocalPoseFuserProcess
        class DummyLocalPoseFuserProcess {
          +bool update(double current_time_sec)
        }
        DummyLocalPoseFuserProcess -up-|> BaseLocalPoseFuserProcess
    }
  }
}
@enduml
