' @compare_tag Process-ClassDiagram v0.1
@startuml
title DepthCameraFeatureHandler Process Class Diagram

namespace fast::rf {
  namespace DiagnosticDefinition {
    enum DiagnosticType
  }
  namespace messages {
    namespace InfrastructureMsgs {
      class DiagnosticMsg <<(M,#FFFF00)>>
      class ReadyToArmStatusMsg <<(M,#FFFF00)>>
    }
  }
  namespace core::Infrastructure {
    class DiagnosticManager
  }
  interface IProcess
  namespace PerceptionSystem {
    namespace ObjectTrackerSubsystem {
      package DepthCameraFeatureHandler #LightYellow;line:blue {

        interface IDepthCameraFeatureHandlerProcess  {
          +{abstract} bool init()
        }
        IDepthCameraFeatureHandlerProcess -up-|> IProcess
        abstract BaseDepthCameraFeatureHandlerProcess {
          +DiagnosticMsg[] getDiagnostics()
          +bool updateDiagnostic(DiagnosticType type, Level level, DiagnosticMessage message, string description)
          +ReadyToArmStatusMsg get_ready_to_arm()
          #bool update(double current_time_sec)
          #string pretty()
          #DiagnosticManager m_diagnosticManager
          #ReadyToArmStatusMsg ready_to_arm

        }
        BaseDepthCameraFeatureHandlerProcess .up.|> IDepthCameraFeatureHandlerProcess
        BaseDepthCameraFeatureHandlerProcess --> DiagnosticManager: <<use>>
        class BasicDepthCameraFeatureHandlerProcessConfig {
          +bool is_ok()
          +string pretty()
        }
        class BasicDepthCameraFeatureHandlerProcess {
          +bool init()
          +bool set_config(BasicDepthCameraFeatureHandlerProcessConfig config)
          +bool update(double current_time_sec)
	  +string pretty()
          -BasicDepthCameraFeatureHandlerProcessConfig config_
        }
        BasicDepthCameraFeatureHandlerProcess -up-|> BaseDepthCameraFeatureHandlerProcess
        BasicDepthCameraFeatureHandlerProcess *-> BasicDepthCameraFeatureHandlerProcessConfig: <<use>>
        class DummyDepthCameraFeatureHandlerProcess {
          +bool update(double current_time_sec)
        }
        DummyDepthCameraFeatureHandlerProcess -up-|> BaseDepthCameraFeatureHandlerProcess
      }
    }
  }
}
@enduml
