@startuml
title System-Safety Package Diagram

namespace fast::rf {
  namespace messages  {}
  package SafetySystem #LightYellow;line:blue {
    interface ISafetySystem {
    }
    abstract BaseSafetySystem {
    }
    ISafetySystem <|-- BaseSafetySystem
    class BasicSafetySystem {

    }
    BaseSafetySystem <|-- BasicSafetySystem
    class DummySafetySystem  {
    }
    BaseSafetySystem <|-- DummySafetySystem
    namespace ModeManagerSubsystem #LimeGreen {
      namespace ArmedStateManager {
        interface IArmedStateManagerProcess #LimeGreen {

        }
        class ArmedStateManagerProcess #LimeGreen {
        }
        ArmedStateManagerProcess -up-|> IArmedStateManagerProcess
      }
    }
  }
}
@enduml